<?xml version="1.0" encoding="UTF-8"?>
<svg width="26px" height="26px" viewBox="0 0 26 26" version="1.1" xmlns="http://www.w3.org/2000/svg" xmlns:xlink="http://www.w3.org/1999/xlink">
    <title>手机登录</title>
    <g id="登录-关注公众号" stroke="none" stroke-width="1" fill="none" fill-rule="evenodd">
        <g id="默认二维码登录" transform="translate(-677.000000, -562.000000)">
            <g id="编组-8" transform="translate(520.000000, 154.000000)">
                <g id="手机登录" transform="translate(157.000000, 408.000000)">
                    <rect id="矩形" fill="#D8D8D8" opacity="0" x="0" y="0" width="26" height="26"></rect>
                    <g id="shoujidenglu" transform="translate(5.777778, 2.888889)" fill="#2E7EEE" fill-rule="nonzero">
                        <path d="M11.0504287,0.0350750326 L2.11622447,0.0350750326 C1.04087257,-0.0376576929 0.106087263,0.765882689 0.0165360677,1.83996478 L0.0165360677,19.8106504 C0.0968488101,20.8961495 1.02916232,21.7189362 2.11622447,21.6636706 L11.0504287,21.6636706 C12.1354387,21.7225918 13.0696287,20.9058428 13.1561334,19.822683 L13.1561334,1.80988327 C13.0666013,0.733294417 12.128045,-0.0711824247 11.0504287,0.0049935319 M5.47331941,1.43687273 L7.99414876,1.43687273 C8.20807391,1.42307941 8.39322766,1.58408267 8.4092734,1.79785068 C8.39014058,2.00921256 8.20591756,2.1667366 7.99414876,2.15281234 L5.47331941,2.15281234 C5.25929299,2.17018276 5.07129597,2.01172813 5.05217847,1.79785068 C5.05985667,1.69401779 5.1086239,1.59753345 5.18767496,1.5297754 C5.26672602,1.46201735 5.36953378,1.42858027 5.47331941,1.43687273 M6.73674223,20.8935843 C6.31356768,20.9570198 5.89246422,20.766739 5.66040348,20.4072275 C5.42834274,20.0477159 5.42834274,19.5856175 5.66040348,19.2261059 C5.89246422,18.8665944 6.31356768,18.6763136 6.73674223,18.7397491 C7.15991678,18.6763136 7.58102024,18.8665944 7.81308098,19.2261059 C8.04514172,19.5856175 8.04514172,20.0477159 7.81308098,20.4072275 C7.58102024,20.766739 7.15991678,20.9570198 6.73674223,20.8935843 M12.1514115,17.7651087 L1.04532321,17.7651087 L1.04532321,3.48843075 L12.1453952,3.48843075 L12.1514115,17.7651087 Z" id="形状"></path>
                    </g>
                </g>
            </g>
        </g>
    </g>
</svg>